<mxfile host="app.diagrams.net" modified="2024-01-22T08:50:28.998Z" agent="Mozilla/5.0 (X11; Linux x86_64) AppleWebKit/537.36 (KHTML, like Gecko) Chrome/109.0.0.0 Safari/537.36" version="22.1.21" etag="bs2P_ZD9RYmJ-vOIiQ1g" type="github">
  <diagram name="Page-1" id="yOUJE9Dooaip5gFjTiWv">
    <mxGraphModel>
      <root>
        <mxCell id="0" />
        <mxCell id="1" parent="0" />
      </root>
    </mxGraphModel>
  </diagram>
</mxfile>
